<svg width="19" height="19" viewBox="0 0 19 19" fill="none" xmlns="http://www.w3.org/2000/svg">
<g opacity="0.8">
<path d="M9.68915 18.2361C14.7007 18.2361 18.7633 14.2816 18.7633 9.40347C18.7633 4.52532 14.7007 0.570801 9.68915 0.570801C4.67763 0.570801 0.61499 4.52532 0.61499 9.40347C0.61499 14.2816 4.67763 18.2361 9.68915 18.2361Z" fill="url(#paint0_linear_56_312)"/>
<path opacity="0.1" d="M4.48853 4.42289C3.22125 7.49512 5.00261 11.091 8.48164 12.4526C11.9607 13.8141 15.8103 12.4293 17.0776 9.35708C18.3449 6.28485 16.5635 2.68894 13.0845 1.32738C9.6174 -0.0341792 5.76776 1.35065 4.48853 4.42289Z" fill="white"/>
<path opacity="0.2" d="M8.18278 3.27045C7.42959 5.10913 8.49362 7.26202 10.5739 8.07663C12.6541 8.89124 14.9615 8.06499 15.7147 6.22631C16.4798 4.38762 15.4039 2.23473 13.3236 1.42013C11.2434 0.605519 8.94793 1.43176 8.18278 3.27045Z" fill="white"/>
<path opacity="0.5" d="M1.98986 4.7251C1.79858 5.44661 1.69098 6.21467 1.69098 7.006C1.69098 11.882 5.75582 15.8387 10.7651 15.8387C14.0051 15.8387 16.8504 14.1745 18.4525 11.6842C17.4243 15.4546 13.8855 18.2359 9.68915 18.2359C4.67983 18.2243 0.61499 14.2793 0.61499 9.40327C0.61499 7.68096 1.11712 6.07502 1.98986 4.7251Z" fill="#D9D9D9"/>
<path opacity="0.5" d="M16.5635 9.40381C16.3483 9.77621 16.0375 10.8701 16.5635 11.1261C17.0895 11.3821 17.6036 10.3581 17.6036 9.5551C17.5917 8.74049 17.1613 8.39137 16.5635 9.40381Z" fill="#D9D9D9"/>
<path opacity="0.5" d="M6.8796 10.7301C7.25022 11.1258 7.26217 11.6029 7.02307 11.8124C6.772 12.0218 6.23401 11.8124 5.89926 11.1723C5.56451 10.5206 5.87535 9.67111 6.8796 10.7301Z" fill="#D9D9D9"/>
<path opacity="0.5" d="M12.4269 3.49195C12.7258 3.81779 13.2997 3.89925 13.204 3.13119C13.0964 2.36313 11.6737 2.65406 12.4269 3.49195Z" fill="#D9D9D9"/>
<path opacity="0.5" d="M14.4832 14.1518C14.3876 13.9423 14.017 14.0354 13.9572 14.3961C13.8974 14.7569 14.818 14.85 14.4832 14.1518Z" fill="#D9D9D9"/>
<path d="M5.26565 13.7211C5.46889 13.8607 5.51671 14.3379 5.08632 14.0469C4.64397 13.756 4.95481 13.5116 5.26565 13.7211Z" fill="#D9D9D9"/>
<path d="M3.07779 10.1137C3.37667 10.5327 2.81477 11.4055 2.49197 10.6258C2.20504 9.93916 2.51588 9.32239 3.07779 10.1137Z" fill="#D9D9D9"/>
<path d="M3.29338 7.20435C3.16161 7.13453 2.98192 7.32072 3.14963 7.54183C3.3413 7.7513 3.65276 7.37891 3.29338 7.20435Z" fill="#D9D9D9"/>
<path d="M9.03159 6.22646C8.85226 6.01699 8.24253 6.28465 8.54142 6.55231C9.03159 6.97125 9.43807 6.70359 9.03159 6.22646Z" fill="#D9D9D9"/>
<path d="M6.44958 4.14355C6.32979 4.03882 6.19802 4.3763 6.32979 4.43449C6.46156 4.50431 6.71313 4.36466 6.44958 4.14355Z" fill="#D9D9D9"/>
<path d="M11.6744 3.35224C11.8061 3.41057 11.8301 3.67887 11.5306 3.56222C11.2311 3.44556 11.3988 3.22392 11.6744 3.35224Z" fill="#D9D9D9"/>
<path d="M13.5514 6.58766C13.7431 6.66932 13.5874 6.8793 13.3118 6.82097C13.0363 6.75098 13.2639 6.471 13.5514 6.58766Z" fill="#D9D9D9"/>
<path d="M14.1729 12.1388C14.2568 12.2321 14.1131 12.4304 13.9573 12.2671C13.8016 12.1038 14.0292 11.9872 14.1729 12.1388Z" fill="#D9D9D9"/>
<path d="M8.91244 8.11237C9.04421 8.2643 8.8765 8.32273 8.74473 8.22924C8.61295 8.13574 8.78066 7.96044 8.91244 8.11237Z" fill="#D9D9D9"/>
<path d="M17.5922 7.25063C17.712 7.40192 17.5443 7.58811 17.3765 7.39028C17.2208 7.20408 17.4724 7.09935 17.5922 7.25063Z" fill="#D9D9D9"/>
<path d="M7.91978 11.8819C7.91978 11.8819 7.89587 11.847 7.86001 11.8005C7.8361 11.7772 7.81218 11.7539 7.78827 11.7306C7.76436 11.7074 7.7285 11.6841 7.69263 11.6608C7.68068 11.6492 7.65676 11.6375 7.64481 11.6259C7.63285 11.6143 7.60894 11.6143 7.59699 11.6026C7.56112 11.591 7.52525 11.5793 7.50134 11.5677C7.44157 11.5561 7.4057 11.5444 7.4057 11.5444C7.4057 11.5444 7.44157 11.5677 7.47743 11.6026C7.50134 11.6143 7.52525 11.6375 7.56112 11.6608C7.59699 11.6724 7.6209 11.6957 7.65676 11.719C7.69263 11.7423 7.71654 11.7539 7.75241 11.7772C7.78827 11.7888 7.81219 11.8121 7.8361 11.8237C7.86001 11.8354 7.88392 11.847 7.89587 11.8586C7.90783 11.8819 7.91978 11.8819 7.91978 11.8819Z" fill="#D9D9D9"/>
<path d="M7.65674 12.3358C7.65674 12.3358 7.64478 12.2892 7.60892 12.231C7.59696 12.2194 7.58501 12.1961 7.57305 12.1845C7.56109 12.1728 7.54914 12.1496 7.53718 12.1379C7.50132 12.103 7.47741 12.0681 7.42959 12.0448C7.40567 12.0332 7.39372 12.0216 7.36981 11.9983C7.3459 11.9867 7.33394 11.975 7.31003 11.9634C7.27416 11.9401 7.2383 11.9285 7.19048 11.9168C7.11874 11.8936 7.07092 11.8936 7.07092 11.8936C7.07092 11.8936 7.10679 11.9285 7.16657 11.9634C7.20243 11.975 7.22634 12.0099 7.26221 12.0332C7.29808 12.0565 7.33394 12.0797 7.36981 12.1147C7.40567 12.1379 7.44154 12.1728 7.47741 12.1961C7.51327 12.2194 7.53718 12.2543 7.56109 12.2776C7.58501 12.3009 7.60892 12.3241 7.62087 12.3358C7.64478 12.3241 7.65674 12.3358 7.65674 12.3358Z" fill="#D9D9D9"/>
<path d="M16.9341 8.1582C16.9341 8.1582 16.9341 8.20475 16.9341 8.26294C16.9341 8.33276 16.9461 8.41422 16.9821 8.49568C17.006 8.57714 17.0539 8.65861 17.1019 8.70515C17.1498 8.7517 17.1857 8.77498 17.1857 8.77498C17.1857 8.77498 17.1857 8.76334 17.1737 8.7517C17.1737 8.74007 17.1618 8.74007 17.1618 8.72843C17.1618 8.71679 17.1498 8.70515 17.1378 8.69352C17.1138 8.63533 17.0779 8.56551 17.0539 8.48405C17.03 8.40259 16.994 8.32112 16.9821 8.26294C16.9461 8.20475 16.9341 8.1582 16.9341 8.1582Z" fill="#D9D9D9"/>
<path d="M16.6114 8.47217C16.6114 8.47217 16.5994 8.50708 16.5875 8.56527C16.5875 8.62345 16.5875 8.70491 16.6234 8.77474C16.6354 8.79801 16.6354 8.80965 16.6474 8.83292C16.6593 8.8562 16.6713 8.86783 16.6833 8.87947C16.7073 8.91438 16.7312 8.93766 16.7552 8.96093C16.8031 8.99584 16.839 9.01912 16.839 9.01912C16.839 9.01912 16.8271 8.98421 16.7911 8.93766C16.7791 8.91438 16.7672 8.87947 16.7432 8.8562C16.7312 8.82128 16.7192 8.79801 16.6953 8.7631C16.6833 8.72819 16.6713 8.69328 16.6593 8.65836C16.6474 8.62345 16.6354 8.60018 16.6354 8.56527C16.6234 8.54199 16.6234 8.51872 16.6114 8.49544C16.6114 8.4838 16.6114 8.47217 16.6114 8.47217Z" fill="#D9D9D9"/>
<path d="M15.7745 9.46177C15.7745 9.46177 15.8223 9.47345 15.8821 9.48513C15.9179 9.48513 15.9538 9.49681 15.9897 9.50849C16.0136 9.50849 16.0255 9.52017 16.0495 9.52017C16.0734 9.52017 16.0853 9.53185 16.1092 9.53185C16.1331 9.53185 16.1451 9.54354 16.169 9.54354C16.1929 9.55522 16.2049 9.55522 16.2288 9.55522C16.2646 9.5669 16.3005 9.57858 16.3364 9.59026C16.3962 9.61362 16.444 9.62531 16.444 9.62531C16.444 9.62531 16.4081 9.59026 16.3603 9.54354C16.3364 9.52017 16.3005 9.50849 16.2646 9.48513C16.2288 9.46176 16.181 9.45008 16.1331 9.4384C16.0494 9.41504 15.9538 9.41504 15.8821 9.41504C15.8223 9.4384 15.7745 9.46177 15.7745 9.46177Z" fill="#D9D9D9"/>
<path d="M16.2766 10.3343C16.2766 10.3343 16.2647 10.3343 16.2527 10.3227C16.2408 10.3227 16.2288 10.3227 16.2168 10.311C16.2049 10.311 16.1929 10.311 16.169 10.311C16.1332 10.311 16.0973 10.311 16.0614 10.3343C16.0375 10.3459 16.0136 10.3459 16.0016 10.3576C15.9777 10.3692 15.9658 10.3809 15.9419 10.3925C15.906 10.4158 15.8701 10.439 15.8343 10.474C15.7984 10.4972 15.7745 10.5321 15.7625 10.5554C15.7267 10.602 15.7028 10.6485 15.7028 10.6485C15.7028 10.6485 15.7386 10.6252 15.7984 10.5903C15.8104 10.5787 15.8223 10.5671 15.8343 10.5554C15.8462 10.5438 15.8701 10.5321 15.8821 10.5205C15.894 10.5089 15.918 10.4972 15.9299 10.4856C15.9419 10.474 15.9658 10.4623 15.9777 10.4507C16.0136 10.4274 16.0495 10.4041 16.0853 10.3925C16.0973 10.3809 16.1212 10.3809 16.1332 10.3692C16.1451 10.3692 16.169 10.3576 16.181 10.3576C16.1929 10.3459 16.2049 10.3459 16.2168 10.3459C16.2288 10.3459 16.2408 10.3343 16.2527 10.3343C16.2647 10.3459 16.2766 10.3343 16.2766 10.3343Z" fill="#D9D9D9"/>
<path d="M16.3373 10.8696C16.3373 10.8696 16.3013 10.8696 16.2414 10.8813C16.1815 10.8929 16.1097 10.9278 16.0498 10.9744C16.0258 10.9976 15.9899 11.0209 15.9659 11.0558C15.942 11.0907 15.918 11.114 15.918 11.1489C15.894 11.2071 15.894 11.242 15.894 11.242C15.894 11.242 15.918 11.2071 15.9539 11.1722C15.9659 11.1489 16.0019 11.1256 16.0138 11.1024C16.0258 11.0907 16.0378 11.0791 16.0498 11.0675L16.0857 11.0326C16.0977 11.0209 16.1097 11.0093 16.1336 10.9976C16.1456 10.986 16.1576 10.9744 16.1815 10.9627C16.2055 10.9395 16.2414 10.9278 16.2654 10.9162C16.2894 10.9045 16.3133 10.8813 16.3253 10.8813C16.3253 10.8696 16.3373 10.8696 16.3373 10.8696Z" fill="#D9D9D9"/>
<path d="M16.6119 11.1372C16.6119 11.1372 16.576 11.1605 16.5281 11.207C16.5041 11.2303 16.4802 11.2536 16.4562 11.2885C16.4442 11.3001 16.4322 11.3234 16.4203 11.335C16.4083 11.3583 16.3963 11.37 16.3843 11.3932C16.3604 11.4281 16.3484 11.4747 16.3364 11.5096C16.3244 11.5329 16.3244 11.5445 16.3244 11.5678C16.3244 11.5911 16.3124 11.6027 16.3124 11.6143C16.3124 11.626 16.3124 11.6492 16.3124 11.6609C16.3124 11.6725 16.3124 11.6842 16.3124 11.6958C16.3124 11.7191 16.3124 11.7191 16.3124 11.7191C16.3124 11.7191 16.3124 11.7074 16.3244 11.6958C16.3244 11.6842 16.3364 11.6725 16.3364 11.6609C16.3364 11.6492 16.3364 11.6376 16.3484 11.626C16.3604 11.6143 16.3604 11.6027 16.3723 11.5794C16.3843 11.5678 16.3843 11.5445 16.3963 11.5329C16.4203 11.498 16.4322 11.463 16.4562 11.4281C16.4802 11.3932 16.4921 11.3583 16.5161 11.3234C16.5281 11.2885 16.552 11.2536 16.564 11.2303C16.588 11.1838 16.6119 11.1372 16.6119 11.1372Z" fill="#D9D9D9"/>
</g>
<defs>
<linearGradient id="paint0_linear_56_312" x1="14.2909" y1="1.93181" x2="5.43459" y2="17.0858" gradientUnits="userSpaceOnUse">
<stop offset="0.00035872" stop-color="#F0F0F0"/>
<stop offset="0.8935" stop-color="#CBCBCB"/>
<stop offset="1" stop-color="#C6C6C6"/>
</linearGradient>
</defs>
</svg>
