<svg width="31" height="47" viewBox="0 0 31 47" fill="none" xmlns="http://www.w3.org/2000/svg">
<g clip-path="url(#clip0_1_133)">
<path d="M7.81849 46.6059C12.0377 46.6059 15.462 43.1816 15.462 38.9624V31.3188H7.81849C3.59928 31.3188 0.174988 34.7431 0.174988 38.9624C0.174988 43.1816 3.59928 46.6059 7.81849 46.6059Z" fill="#0ACF83"/>
<path d="M0.174988 23.6752C0.174988 19.456 3.59928 16.0317 7.81849 16.0317H15.462V31.3188H7.81849C3.59928 31.3188 0.174988 27.8945 0.174988 23.6752Z" fill="#621BBB"/>
<path d="M0.174988 8.38814C0.174988 4.16892 3.59928 0.744629 7.81849 0.744629H15.462V16.0316H7.81849C3.59928 16.0316 0.174988 12.6074 0.174988 8.38814Z" fill="#F24E1E"/>
<path d="M15.462 0.744629H23.1055C27.3247 0.744629 30.749 4.16892 30.749 8.38814C30.749 12.6074 27.3247 16.0316 23.1055 16.0316H15.462V0.744629Z" fill="#FF7262"/>
<path d="M30.749 23.6752C30.749 27.8945 27.3247 31.3188 23.1055 31.3188C18.8863 31.3188 15.462 27.8945 15.462 23.6752C15.462 19.456 18.8863 16.0317 23.1055 16.0317C27.3247 16.0317 30.749 19.456 30.749 23.6752Z" fill="#1ABCFE"/>
</g>
<defs>
<clipPath id="clip0_1_133">
<rect width="30.574" height="45.861" fill="white" transform="translate(0.174988 0.744629)"/>
</clipPath>
</defs>
</svg>
